<svg width="32" height="32" xmlns="http://www.w3.org/2000/svg">

 <g>
  <title>background</title>
  <rect fill="none" id="canvas_background" height="402" width="582" y="-1" x="-1"/>
 </g>
 <g>
  <title>Layer 1</title>
  <path id="svg_1" fill-rule="evenodd" fill="#fcfcfc" d="m16.002,17.746c3.309,0 6,-2.692 6,-6s-2.691,-6 -6,-6c-3.309,0 -6,2.691 -6,6s2.691,6 6,6zm0,-11c2.758,0 5,2.242 5,5s-2.242,5 -5,5c-2.758,0 -5,-2.242 -5,-5s2.242,-5 5,-5z" clip-rule="evenodd"/>
  <path id="svg_2" fill-rule="evenodd" fill="#fcfcfc" d="m16,0c-6.618,0 -12,5.316 -12,12.001c0,7 6.001,14.161 10.376,19.194c0.016,0.02 0.718,0.805 1.586,0.805c0.002,0 0.073,0 0.077,0c0.867,0 1.57,-0.785 1.586,-0.805c4.377,-5.033 10.377,-12.193 10.377,-19.194c0,-6.685 -5.383,-12.001 -12.002,-12.001zm0.117,29.883c-0.021,0.02 -0.082,0.064 -0.135,0.098c-0.01,-0.027 -0.084,-0.086 -0.129,-0.133c-3.665,-4.217 -9.853,-11.334 -9.853,-17.847c0,-5.514 4.487,-10.001 10,-10.001c5.516,0 10.002,4.487 10.002,10.002c0,6.512 -6.188,13.629 -9.885,17.881z" clip-rule="evenodd"/>
 </g>
</svg>